<?xml version="1.0" encoding="utf-8"?>
<!-- Generator: Adobe Illustrator 22.0.1, SVG Export Plug-In . SVG Version: 6.00 Build 0)  -->
<svg version="1.1" id="Layer_1" xmlns="http://www.w3.org/2000/svg" xmlns:xlink="http://www.w3.org/1999/xlink" x="0px" y="0px"
	 viewBox="0 0 200 200" style="enable-background:new 0 0 200 200;" xml:space="preserve">
<style type="text/css">
	.st0{fill:#C0C0C0;stroke:#000000;stroke-width:5;stroke-miterlimit:10;}
	.st1{fill:none;stroke:#FFFFFF;stroke-width:3;stroke-miterlimit:10;}
</style>
<g>
	<path class="st0" d="M36.5,93C24.1,93,14,82.9,14,70.5S24.1,48,36.5,48h113c12.4,0,22.5,10.1,22.5,22.5S161.9,93,149.5,93H36.5z"/>
	<path class="st0" d="M149.5,49c11.9,0,21.5,9.6,21.5,21.5S161.4,92,149.5,92h-113C24.6,92,15,82.4,15,70.5S24.6,49,36.5,49H149.5
		 M149.5,47h-113C23.6,47,13,57.6,13,70.5l0,0C13,83.4,23.6,94,36.5,94h113c12.9,0,23.5-10.6,23.5-23.5l0,0
		C173,57.6,162.4,47,149.5,47L149.5,47z"/>
</g>
<path class="st1" d="M47.9,89.1c0-17.1-11.2-31-25-31"/>
<path class="st1" d="M137.8,89.1c0-17.1,11.2-31,25-31"/>
<path class="st1" d="M116.3,51.7c0,20.8-9.3,37.6-20.8,37.6"/>
<path class="st1" d="M74.8,51.7c0,20.8,9.3,37.6,20.8,37.6"/>
</svg>
