<?xml version="1.0" encoding="utf-8"?>
<!-- Generator: Adobe Illustrator 22.0.1, SVG Export Plug-In . SVG Version: 6.00 Build 0)  -->
<svg version="1.1" id="Layer_1" xmlns="http://www.w3.org/2000/svg" xmlns:xlink="http://www.w3.org/1999/xlink" x="0px" y="0px"
	 viewBox="0 0 200 200" style="enable-background:new 0 0 200 200;" xml:space="preserve">
<style type="text/css">
	.st0{fill:#FFFFFF;stroke:#000000;stroke-width:5;stroke-miterlimit:10;}
</style>
<g>
	<path class="st0" d="M35.4,112.1c-12.3,0-22.2-6.8-22.2-15.2s10-15.2,22.2-15.2H154c12.3,0,22.2,6.8,22.2,15.2s-10,15.2-22.2,15.2
		H35.4z"/>
	<path class="st0" d="M154,82.4c11.8,0,21.2,6.5,21.2,14.5s-9.5,14.5-21.2,14.5H35.4c-11.8,0-21.2-6.5-21.2-14.5s9.5-14.5,21.2-14.5
		H154 M154,81H35.4c-12.7,0-23.2,7.2-23.2,15.9l0,0c0,8.7,10.5,15.9,23.2,15.9H154c12.7,0,23.2-7.2,23.2-15.9l0,0
		C177.2,88.2,166.7,81,154,81L154,81z"/>
</g>
</svg>
