<?xml version="1.0" encoding="utf-8"?>
<!-- Generator: Adobe Illustrator 22.0.1, SVG Export Plug-In . SVG Version: 6.00 Build 0)  -->
<svg version="1.1" id="Layer_1" xmlns="http://www.w3.org/2000/svg" xmlns:xlink="http://www.w3.org/1999/xlink" x="0px" y="0px"
	 viewBox="0 0 200 200" style="enable-background:new 0 0 200 200;" xml:space="preserve">
<style type="text/css">
	.st0{fill:#FFFFFF;stroke:#000000;stroke-width:5;stroke-miterlimit:10;}
</style>
<g>
	<path class="st0" d="M37,111.6c-13.1,0-23.8-11.2-23.8-25s10.7-25,23.8-25h126.7c13.1,0,23.8,11.2,23.8,25s-10.7,25-23.8,25H37z"/>
	<path class="st0" d="M163.7,62.7c12.6,0,22.7,10.7,22.7,23.9s-10.1,23.9-22.7,23.9H37c-12.6,0-22.7-10.7-22.7-23.9
		S24.4,62.7,37,62.7H163.7 M163.7,60.5H37c-13.6,0-24.8,11.8-24.8,26.1l0,0c0,14.3,11.2,26.1,24.8,26.1h126.7
		c13.6,0,24.8-11.8,24.8-26.1l0,0C188.5,72.3,177.3,60.5,163.7,60.5L163.7,60.5z"/>
</g>
</svg>
