<?xml version="1.0" encoding="utf-8"?>
<!-- Generator: Adobe Illustrator 22.0.1, SVG Export Plug-In . SVG Version: 6.00 Build 0)  -->
<svg version="1.1" id="Layer_1" xmlns="http://www.w3.org/2000/svg" xmlns:xlink="http://www.w3.org/1999/xlink" x="0px" y="0px"
	 viewBox="0 0 200 200" style="enable-background:new 0 0 200 200;" xml:space="preserve">
<style type="text/css">
	.st0{fill:none;stroke:#000000;stroke-width:2;stroke-miterlimit:10;}
</style>
<line class="st0" x1="51" y1="40" x2="51" y2="76"/>
<line class="st0" x1="51" y1="75" x2="65" y2="87"/>
<line class="st0" x1="51" y1="41" x2="64" y2="30"/>
<line class="st0" x1="65" y1="29" x2="65" y2="87"/>
<line class="st0" x1="65" y1="29" x2="105" y2="56"/>
<line class="st0" x1="64" y1="87" x2="105" y2="58"/>
<line class="st0" x1="51" y1="47" x2="106" y2="57"/>
<line class="st0" x1="51" y1="64" x2="105" y2="58"/>
<line class="st0" x1="104" y1="57" x2="166" y2="57"/>
<path class="st0" d="M154.8,80.8c-1.2,1.7-3.2,2.8-5.4,2.8l0,0c-3.6,0-6.5-3-6.4-6.6"/>
<path class="st0" d="M156,77.2c0,1.3-0.4,2.6-1.2,3.6"/>
<path class="st0" d="M156,77.2"/>
<path class="st0" d="M156,34.6c0.3,0.8,0.5,1.6,0.5,2.5"/>
<path class="st0" d="M143,77l0.5-40c0-3.6,3-6.5,6.6-6.4h0c2.7,0,5,1.7,5.9,4.1"/>
</svg>
