<?xml version="1.0" encoding="utf-8"?>
<!-- Generator: Adobe Illustrator 22.0.1, SVG Export Plug-In . SVG Version: 6.00 Build 0)  -->
<svg version="1.1" id="Layer_1" xmlns="http://www.w3.org/2000/svg" xmlns:xlink="http://www.w3.org/1999/xlink" x="0px" y="0px"
	 viewBox="0 0 200 200" style="enable-background:new 0 0 200 200;" xml:space="preserve">
<style type="text/css">
	.st0{fill:#FFFFFF;}
</style>
<g>
	<circle class="st0" cx="101.5" cy="89.5" r="33.5"/>
	<path d="M101.5,57c17.9,0,32.5,14.6,32.5,32.5S119.4,122,101.5,122S69,107.4,69,89.5S83.6,57,101.5,57 M101.5,55
		C82.4,55,67,70.4,67,89.5S82.4,124,101.5,124S136,108.6,136,89.5S120.6,55,101.5,55L101.5,55z"/>
</g>
<g>
	<path class="st0" d="M23,100c-6.1,0-11-4.9-11-11s4.9-11,11-11h33c6.1,0,11,4.9,11,11s-4.9,11-11,11H23z"/>
	<path d="M56,79c5.5,0,10,4.5,10,10c0,5.5-4.5,10-10,10H23c-5.5,0-10-4.5-10-10c0-5.5,4.5-10,10-10H56 M56,77H23
		c-6.6,0-12,5.4-12,12v0c0,6.6,5.4,12,12,12h33c6.6,0,12-5.4,12-12v0C68,82.4,62.6,77,56,77L56,77z"/>
</g>
<g>
	<path class="st0" d="M148,97c-6.1,0-11-4.9-11-11s4.9-11,11-11h33c6.1,0,11,4.9,11,11s-4.9,11-11,11H148z"/>
	<path d="M181,76c5.5,0,10,4.5,10,10c0,5.5-4.5,10-10,10h-33c-5.5,0-10-4.5-10-10c0-5.5,4.5-10,10-10H181 M181,74h-33
		c-6.6,0-12,5.4-12,12v0c0,6.6,5.4,12,12,12h33c6.6,0,12-5.4,12-12v0C193,79.4,187.6,74,181,74L181,74z"/>
</g>
<g>
	<ellipse class="st0" cx="101.5" cy="89.5" rx="24.5" ry="22.5"/>
	<path d="M101.5,68c13,0,23.5,9.6,23.5,21.5S114.5,111,101.5,111S78,101.4,78,89.5S88.5,68,101.5,68 M101.5,66
		C87.4,66,76,76.5,76,89.5S87.4,113,101.5,113S127,102.5,127,89.5S115.6,66,101.5,66L101.5,66z"/>
</g>
<g>
	<rect x="87" y="76" transform="matrix(0.6789 -0.7343 0.7343 0.6789 -33.6489 103.065)" class="st0" width="28" height="28"/>
	<path d="M100.3,71.6l19.1,17.6l-17.6,19.1L82.6,90.7L100.3,71.6 M100.2,68.8l-20.4,22l22,20.4l20.4-22L100.2,68.8L100.2,68.8z"/>
</g>
<g>
	<circle class="st0" cx="82.5" cy="68.5" r="3.5"/>
	<path d="M82.5,66c1.4,0,2.5,1.1,2.5,2.5S83.9,71,82.5,71S80,69.9,80,68.5S81.1,66,82.5,66 M82.5,64C80,64,78,66,78,68.5
		s2,4.5,4.5,4.5s4.5-2,4.5-4.5S85,64,82.5,64L82.5,64z"/>
</g>
<g>
	<circle class="st0" cx="93.5" cy="62.5" r="3.5"/>
	<path d="M93.5,60c1.4,0,2.5,1.1,2.5,2.5S94.9,65,93.5,65S91,63.9,91,62.5S92.1,60,93.5,60 M93.5,58C91,58,89,60,89,62.5
		c0,2.5,2,4.5,4.5,4.5s4.5-2,4.5-4.5C98,60,96,58,93.5,58L93.5,58z"/>
</g>
<g>
	<circle class="st0" cx="105.5" cy="62.5" r="3.5"/>
	<path d="M105.5,60c1.4,0,2.5,1.1,2.5,2.5s-1.1,2.5-2.5,2.5s-2.5-1.1-2.5-2.5S104.1,60,105.5,60 M105.5,58c-2.5,0-4.5,2-4.5,4.5
		c0,2.5,2,4.5,4.5,4.5s4.5-2,4.5-4.5C110,60,108,58,105.5,58L105.5,58z"/>
</g>
<g>
	<circle class="st0" cx="116.5" cy="65.5" r="3.5"/>
	<path d="M116.5,63c1.4,0,2.5,1.1,2.5,2.5s-1.1,2.5-2.5,2.5s-2.5-1.1-2.5-2.5S115.1,63,116.5,63 M116.5,61c-2.5,0-4.5,2-4.5,4.5
		c0,2.5,2,4.5,4.5,4.5s4.5-2,4.5-4.5C121,63,119,61,116.5,61L116.5,61z"/>
</g>
<g>
	<circle class="st0" cx="125.5" cy="73.5" r="3.5"/>
	<path d="M125.5,71c1.4,0,2.5,1.1,2.5,2.5s-1.1,2.5-2.5,2.5s-2.5-1.1-2.5-2.5S124.1,71,125.5,71 M125.5,69c-2.5,0-4.5,2-4.5,4.5
		s2,4.5,4.5,4.5s4.5-2,4.5-4.5S128,69,125.5,69L125.5,69z"/>
</g>
<g>
	<circle class="st0" cx="75.5" cy="76.5" r="3.5"/>
	<path d="M75.5,74c1.4,0,2.5,1.1,2.5,2.5S76.9,79,75.5,79S73,77.9,73,76.5S74.1,74,75.5,74 M75.5,72C73,72,71,74,71,76.5
		s2,4.5,4.5,4.5s4.5-2,4.5-4.5S78,72,75.5,72L75.5,72z"/>
</g>
<g>
	<circle class="st0" cx="72.5" cy="86.5" r="3.5"/>
	<path d="M72.5,84c1.4,0,2.5,1.1,2.5,2.5S73.9,89,72.5,89S70,87.9,70,86.5S71.1,84,72.5,84 M72.5,82C70,82,68,84,68,86.5
		s2,4.5,4.5,4.5s4.5-2,4.5-4.5S75,82,72.5,82L72.5,82z"/>
</g>
<g>
	<circle class="st0" cx="129.5" cy="83.5" r="3.5"/>
	<path d="M129.5,81c1.4,0,2.5,1.1,2.5,2.5s-1.1,2.5-2.5,2.5s-2.5-1.1-2.5-2.5S128.1,81,129.5,81 M129.5,79c-2.5,0-4.5,2-4.5,4.5
		s2,4.5,4.5,4.5c2.5,0,4.5-2,4.5-4.5S132,79,129.5,79L129.5,79z"/>
</g>
<g>
	<circle class="st0" cx="130.5" cy="93.5" r="3.5"/>
	<path d="M130.5,91c1.4,0,2.5,1.1,2.5,2.5s-1.1,2.5-2.5,2.5s-2.5-1.1-2.5-2.5S129.1,91,130.5,91 M130.5,89c-2.5,0-4.5,2-4.5,4.5
		s2,4.5,4.5,4.5s4.5-2,4.5-4.5S133,89,130.5,89L130.5,89z"/>
</g>
<g>
	<circle class="st0" cx="126.5" cy="102.5" r="3.5"/>
	<path d="M126.5,100c1.4,0,2.5,1.1,2.5,2.5s-1.1,2.5-2.5,2.5s-2.5-1.1-2.5-2.5S125.1,100,126.5,100 M126.5,98c-2.5,0-4.5,2-4.5,4.5
		s2,4.5,4.5,4.5c2.5,0,4.5-2,4.5-4.5S129,98,126.5,98L126.5,98z"/>
</g>
<g>
	<circle class="st0" cx="119.5" cy="111.5" r="3.5"/>
	<path d="M119.5,109c1.4,0,2.5,1.1,2.5,2.5s-1.1,2.5-2.5,2.5s-2.5-1.1-2.5-2.5S118.1,109,119.5,109 M119.5,107c-2.5,0-4.5,2-4.5,4.5
		s2,4.5,4.5,4.5s4.5-2,4.5-4.5S122,107,119.5,107L119.5,107z"/>
</g>
<g>
	<circle class="st0" cx="73.5" cy="96.5" r="3.5"/>
	<path d="M73.5,94c1.4,0,2.5,1.1,2.5,2.5S74.9,99,73.5,99S71,97.9,71,96.5S72.1,94,73.5,94 M73.5,92C71,92,69,94,69,96.5
		s2,4.5,4.5,4.5s4.5-2,4.5-4.5S76,92,73.5,92L73.5,92z"/>
</g>
<g>
	<circle class="st0" cx="77.5" cy="105.5" r="3.5"/>
	<path d="M77.5,103c1.4,0,2.5,1.1,2.5,2.5s-1.1,2.5-2.5,2.5s-2.5-1.1-2.5-2.5S76.1,103,77.5,103 M77.5,101c-2.5,0-4.5,2-4.5,4.5
		s2,4.5,4.5,4.5s4.5-2,4.5-4.5S80,101,77.5,101L77.5,101z"/>
</g>
<g>
	<circle class="st0" cx="85.5" cy="112.5" r="3.5"/>
	<path d="M85.5,110c1.4,0,2.5,1.1,2.5,2.5s-1.1,2.5-2.5,2.5s-2.5-1.1-2.5-2.5S84.1,110,85.5,110 M85.5,108c-2.5,0-4.5,2-4.5,4.5
		c0,2.5,2,4.5,4.5,4.5s4.5-2,4.5-4.5C90,110,88,108,85.5,108L85.5,108z"/>
</g>
<g>
	<circle class="st0" cx="95.5" cy="116.5" r="3.5"/>
	<path d="M95.5,114c1.4,0,2.5,1.1,2.5,2.5s-1.1,2.5-2.5,2.5s-2.5-1.1-2.5-2.5S94.1,114,95.5,114 M95.5,112c-2.5,0-4.5,2-4.5,4.5
		c0,2.5,2,4.5,4.5,4.5s4.5-2,4.5-4.5C100,114,98,112,95.5,112L95.5,112z"/>
</g>
<g>
	<circle class="st0" cx="107.5" cy="116.5" r="3.5"/>
	<path d="M107.5,114c1.4,0,2.5,1.1,2.5,2.5s-1.1,2.5-2.5,2.5s-2.5-1.1-2.5-2.5S106.1,114,107.5,114 M107.5,112c-2.5,0-4.5,2-4.5,4.5
		s2,4.5,4.5,4.5s4.5-2,4.5-4.5S110,112,107.5,112L107.5,112z"/>
</g>
</svg>
