<?xml version="1.0" encoding="utf-8"?>
<!-- Generator: Adobe Illustrator 22.0.1, SVG Export Plug-In . SVG Version: 6.00 Build 0)  -->
<svg version="1.1" id="Layer_1" xmlns="http://www.w3.org/2000/svg" xmlns:xlink="http://www.w3.org/1999/xlink" x="0px" y="0px"
	 viewBox="0 0 200 200" style="enable-background:new 0 0 200 200;" xml:space="preserve">
<style type="text/css">
	.st0{fill:url(#SVGID_1_);stroke:#000000;stroke-width:5;stroke-miterlimit:10;}
	.st1{stroke:#000000;stroke-width:5;stroke-miterlimit:10;}
</style>
<g>
	<linearGradient id="SVGID_1_" gradientUnits="userSpaceOnUse" x1="12" y1="70.5" x2="170" y2="70.5">
		<stop  offset="0" style="stop-color:#FFFFFF"/>
		<stop  offset="1" style="stop-color:#000000"/>
	</linearGradient>
	<path class="st0" d="M34.5,93C22.1,93,12,82.9,12,70.5S22.1,48,34.5,48h113c12.4,0,22.5,10.1,22.5,22.5S159.9,93,147.5,93H34.5z"/>
	<path class="st1" d="M147.5,49c11.9,0,21.5,9.6,21.5,21.5S159.4,92,147.5,92h-113C22.6,92,13,82.4,13,70.5S22.6,49,34.5,49H147.5
		 M147.5,47h-113C21.6,47,11,57.6,11,70.5l0,0C11,83.4,21.6,94,34.5,94h113c12.9,0,23.5-10.6,23.5-23.5l0,0
		C171,57.6,160.4,47,147.5,47L147.5,47z"/>
</g>
</svg>
