<?xml version="1.0" encoding="utf-8"?>
<!-- Generator: Adobe Illustrator 22.0.1, SVG Export Plug-In . SVG Version: 6.00 Build 0)  -->
<svg version="1.1" id="Layer_1" xmlns="http://www.w3.org/2000/svg" xmlns:xlink="http://www.w3.org/1999/xlink" x="0px" y="0px"
	 viewBox="0 0 200 200" style="enable-background:new 0 0 200 200;" xml:space="preserve">
<style type="text/css">
	.st0{fill:#FFFFFF;}
</style>
<g>
	<circle class="st0" cx="102.5" cy="87.5" r="33.5"/>
	<path d="M102.5,55c17.9,0,32.5,14.6,32.5,32.5S120.4,120,102.5,120S70,105.4,70,87.5S84.6,55,102.5,55 M102.5,53
		C83.4,53,68,68.4,68,87.5S83.4,122,102.5,122S137,106.6,137,87.5S121.6,53,102.5,53L102.5,53z"/>
</g>
<g>
	<path class="st0" d="M103,119.2c-0.3,0-0.5-0.1-0.7-0.3L73.1,89.7c-0.2-0.2-0.3-0.4-0.3-0.7s0.1-0.5,0.3-0.7l29.3-29.3
		c0.2-0.2,0.4-0.3,0.7-0.3s0.5,0.1,0.7,0.3l29.3,29.3c0.4,0.4,0.4,1,0,1.3l-29.3,29.3C103.5,119.1,103.3,119.2,103,119.2z"/>
	<path d="M103,59.8L132.2,89L103,118.2L73.8,89L103,59.8 M103,57.8c-0.5,0-1,0.2-1.4,0.6L72.4,87.6c-0.8,0.8-0.8,2,0,2.7l29.3,29.3
		c0.4,0.4,0.9,0.6,1.4,0.6s1-0.2,1.4-0.6l29.3-29.3c0.8-0.8,0.8-2,0-2.7l-29.3-29.3C104,58,103.5,57.8,103,57.8L103,57.8z"/>
</g>
<g>
	<path class="st0" d="M24,98c-6.1,0-11-4.9-11-11v-4c0-6.1,4.9-11,11-11h33c6.1,0,11,4.9,11,11v4c0,6.1-4.9,11-11,11H24z"/>
	<path d="M57,73c5.5,0,10,4.5,10,10v4c0,5.5-4.5,10-10,10H24c-5.5,0-10-4.5-10-10v-4c0-5.5,4.5-10,10-10H57 M57,71H24
		c-6.6,0-12,5.4-12,12v4c0,6.6,5.4,12,12,12h33c6.6,0,12-5.4,12-12v-4C69,76.4,63.6,71,57,71L57,71z"/>
</g>
<g>
	<path class="st0" d="M149,99c-6.1,0-11-4.9-11-11v-4c0-6.1,4.9-11,11-11h33c6.1,0,11,4.9,11,11v4c0,6.1-4.9,11-11,11H149z"/>
	<path d="M182,74c5.5,0,10,4.5,10,10v4c0,5.5-4.5,10-10,10h-33c-5.5,0-10-4.5-10-10v-4c0-5.5,4.5-10,10-10H182 M182,72h-33
		c-6.6,0-12,5.4-12,12v4c0,6.6,5.4,12,12,12h33c6.6,0,12-5.4,12-12v-4C194,77.4,188.6,72,182,72L182,72z"/>
</g>
<g>
	<circle class="st0" cx="24.5" cy="77.5" r="3.5"/>
	<path d="M24.5,75c1.4,0,2.5,1.1,2.5,2.5S25.9,80,24.5,80S22,78.9,22,77.5S23.1,75,24.5,75 M24.5,73C22,73,20,75,20,77.5
		s2,4.5,4.5,4.5s4.5-2,4.5-4.5S27,73,24.5,73L24.5,73z"/>
</g>
<g>
	<circle class="st0" cx="18.5" cy="85.5" r="3.5"/>
	<path d="M18.5,83c1.4,0,2.5,1.1,2.5,2.5S19.9,88,18.5,88S16,86.9,16,85.5S17.1,83,18.5,83 M18.5,81C16,81,14,83,14,85.5
		s2,4.5,4.5,4.5s4.5-2,4.5-4.5S21,81,18.5,81L18.5,81z"/>
</g>
<g>
	<circle class="st0" cx="24.5" cy="92.5" r="3.5"/>
	<path d="M24.5,90c1.4,0,2.5,1.1,2.5,2.5S25.9,95,24.5,95S22,93.9,22,92.5S23.1,90,24.5,90 M24.5,88C22,88,20,90,20,92.5
		s2,4.5,4.5,4.5s4.5-2,4.5-4.5S27,88,24.5,88L24.5,88z"/>
</g>
<g>
	<circle class="st0" cx="31.5" cy="83.5" r="3.5"/>
	<path d="M31.5,81c1.4,0,2.5,1.1,2.5,2.5S32.9,86,31.5,86c-1.4,0-2.5-1.1-2.5-2.5S30.1,81,31.5,81 M31.5,79C29,79,27,81,27,83.5
		s2,4.5,4.5,4.5s4.5-2,4.5-4.5S34,79,31.5,79L31.5,79z"/>
</g>
<g>
	<circle class="st0" cx="38.5" cy="77.5" r="3.5"/>
	<path d="M38.5,75c1.4,0,2.5,1.1,2.5,2.5S39.9,80,38.5,80S36,78.9,36,77.5S37.1,75,38.5,75 M38.5,73C36,73,34,75,34,77.5
		s2,4.5,4.5,4.5s4.5-2,4.5-4.5S41,73,38.5,73L38.5,73z"/>
</g>
<g>
	<circle class="st0" cx="35.5" cy="91.5" r="3.5"/>
	<path d="M35.5,89c1.4,0,2.5,1.1,2.5,2.5S36.9,94,35.5,94S33,92.9,33,91.5S34.1,89,35.5,89 M35.5,87C33,87,31,89,31,91.5
		s2,4.5,4.5,4.5s4.5-2,4.5-4.5S38,87,35.5,87L35.5,87z"/>
</g>
<g>
	<circle class="st0" cx="44.5" cy="84.5" r="3.5"/>
	<path d="M44.5,82c1.4,0,2.5,1.1,2.5,2.5S45.9,87,44.5,87S42,85.9,42,84.5S43.1,82,44.5,82 M44.5,80C42,80,40,82,40,84.5
		s2,4.5,4.5,4.5s4.5-2,4.5-4.5S47,80,44.5,80L44.5,80z"/>
</g>
<g>
	<circle class="st0" cx="52.5" cy="77.5" r="3.5"/>
	<path d="M52.5,75c1.4,0,2.5,1.1,2.5,2.5S53.9,80,52.5,80S50,78.9,50,77.5S51.1,75,52.5,75 M52.5,73C50,73,48,75,48,77.5
		s2,4.5,4.5,4.5s4.5-2,4.5-4.5S55,73,52.5,73L52.5,73z"/>
</g>
<g>
	<circle class="st0" cx="48.5" cy="92.5" r="3.5"/>
	<path d="M48.5,90c1.4,0,2.5,1.1,2.5,2.5S49.9,95,48.5,95S46,93.9,46,92.5S47.1,90,48.5,90 M48.5,88C46,88,44,90,44,92.5
		s2,4.5,4.5,4.5s4.5-2,4.5-4.5S51,88,48.5,88L48.5,88z"/>
</g>
<g>
	<circle class="st0" cx="56.5" cy="85.5" r="3.5"/>
	<path d="M56.5,83c1.4,0,2.5,1.1,2.5,2.5S57.9,88,56.5,88S54,86.9,54,85.5S55.1,83,56.5,83 M56.5,81C54,81,52,83,52,85.5
		s2,4.5,4.5,4.5s4.5-2,4.5-4.5S59,81,56.5,81L56.5,81z"/>
</g>
<g>
	<circle class="st0" cx="60.5" cy="91.5" r="3.5"/>
	<path d="M60.5,89c1.4,0,2.5,1.1,2.5,2.5S61.9,94,60.5,94S58,92.9,58,91.5S59.1,89,60.5,89 M60.5,87C58,87,56,89,56,91.5
		s2,4.5,4.5,4.5s4.5-2,4.5-4.5S63,87,60.5,87L60.5,87z"/>
</g>
<g>
	<circle class="st0" cx="62.5" cy="78.5" r="3.5"/>
	<path d="M62.5,76c1.4,0,2.5,1.1,2.5,2.5S63.9,81,62.5,81S60,79.9,60,78.5S61.1,76,62.5,76 M62.5,74C60,74,58,76,58,78.5
		s2,4.5,4.5,4.5c2.5,0,4.5-2,4.5-4.5S65,74,62.5,74L62.5,74z"/>
</g>
<g>
	<circle class="st0" cx="185.5" cy="79.5" r="3.5"/>
	<path d="M185.5,77c1.4,0,2.5,1.1,2.5,2.5s-1.1,2.5-2.5,2.5s-2.5-1.1-2.5-2.5S184.1,77,185.5,77 M185.5,75c-2.5,0-4.5,2-4.5,4.5
		s2,4.5,4.5,4.5s4.5-2,4.5-4.5S188,75,185.5,75L185.5,75z"/>
</g>
<g>
	<circle class="st0" cx="185.5" cy="91.5" r="3.5"/>
	<path d="M185.5,89c1.4,0,2.5,1.1,2.5,2.5s-1.1,2.5-2.5,2.5s-2.5-1.1-2.5-2.5S184.1,89,185.5,89 M185.5,87c-2.5,0-4.5,2-4.5,4.5
		s2,4.5,4.5,4.5s4.5-2,4.5-4.5S188,87,185.5,87L185.5,87z"/>
</g>
<g>
	<circle class="st0" cx="176.5" cy="85.5" r="3.5"/>
	<path d="M176.5,83c1.4,0,2.5,1.1,2.5,2.5s-1.1,2.5-2.5,2.5s-2.5-1.1-2.5-2.5S175.1,83,176.5,83 M176.5,81c-2.5,0-4.5,2-4.5,4.5
		s2,4.5,4.5,4.5s4.5-2,4.5-4.5S179,81,176.5,81L176.5,81z"/>
</g>
<g>
	<circle class="st0" cx="168.5" cy="78.5" r="3.5"/>
	<path d="M168.5,76c1.4,0,2.5,1.1,2.5,2.5s-1.1,2.5-2.5,2.5s-2.5-1.1-2.5-2.5S167.1,76,168.5,76 M168.5,74c-2.5,0-4.5,2-4.5,4.5
		s2,4.5,4.5,4.5s4.5-2,4.5-4.5S171,74,168.5,74L168.5,74z"/>
</g>
<g>
	<circle class="st0" cx="168.5" cy="93.5" r="3.5"/>
	<path d="M168.5,91c1.4,0,2.5,1.1,2.5,2.5s-1.1,2.5-2.5,2.5s-2.5-1.1-2.5-2.5S167.1,91,168.5,91 M168.5,89c-2.5,0-4.5,2-4.5,4.5
		s2,4.5,4.5,4.5s4.5-2,4.5-4.5S171,89,168.5,89L168.5,89z"/>
</g>
<g>
	<circle class="st0" cx="159.5" cy="85.5" r="3.5"/>
	<path d="M159.5,83c1.4,0,2.5,1.1,2.5,2.5s-1.1,2.5-2.5,2.5s-2.5-1.1-2.5-2.5S158.1,83,159.5,83 M159.5,81c-2.5,0-4.5,2-4.5,4.5
		s2,4.5,4.5,4.5s4.5-2,4.5-4.5S162,81,159.5,81L159.5,81z"/>
</g>
<g>
	<circle class="st0" cx="152.5" cy="78.5" r="3.5"/>
	<path d="M152.5,76c1.4,0,2.5,1.1,2.5,2.5s-1.1,2.5-2.5,2.5s-2.5-1.1-2.5-2.5S151.1,76,152.5,76 M152.5,74c-2.5,0-4.5,2-4.5,4.5
		s2,4.5,4.5,4.5s4.5-2,4.5-4.5S155,74,152.5,74L152.5,74z"/>
</g>
<g>
	<circle class="st0" cx="143.5" cy="81.5" r="3.5"/>
	<path d="M143.5,79c1.4,0,2.5,1.1,2.5,2.5s-1.1,2.5-2.5,2.5s-2.5-1.1-2.5-2.5S142.1,79,143.5,79 M143.5,77c-2.5,0-4.5,2-4.5,4.5
		s2,4.5,4.5,4.5s4.5-2,4.5-4.5S146,77,143.5,77L143.5,77z"/>
</g>
<g>
	<circle class="st0" cx="150.5" cy="87.5" r="3.5"/>
	<path d="M150.5,85c1.4,0,2.5,1.1,2.5,2.5s-1.1,2.5-2.5,2.5s-2.5-1.1-2.5-2.5S149.1,85,150.5,85 M150.5,83c-2.5,0-4.5,2-4.5,4.5
		s2,4.5,4.5,4.5s4.5-2,4.5-4.5S153,83,150.5,83L150.5,83z"/>
</g>
<g>
	<circle class="st0" cx="157.5" cy="93.5" r="3.5"/>
	<path d="M157.5,91c1.4,0,2.5,1.1,2.5,2.5s-1.1,2.5-2.5,2.5s-2.5-1.1-2.5-2.5S156.1,91,157.5,91 M157.5,89c-2.5,0-4.5,2-4.5,4.5
		s2,4.5,4.5,4.5s4.5-2,4.5-4.5S160,89,157.5,89L157.5,89z"/>
</g>
<g>
	<circle class="st0" cx="145.5" cy="92.5" r="3.5"/>
	<path d="M145.5,90c1.4,0,2.5,1.1,2.5,2.5s-1.1,2.5-2.5,2.5s-2.5-1.1-2.5-2.5S144.1,90,145.5,90 M145.5,88c-2.5,0-4.5,2-4.5,4.5
		s2,4.5,4.5,4.5s4.5-2,4.5-4.5S148,88,145.5,88L145.5,88z"/>
</g>
<g>
	<circle class="st0" cx="160.5" cy="77.5" r="3.5"/>
	<path d="M160.5,75c1.4,0,2.5,1.1,2.5,2.5s-1.1,2.5-2.5,2.5s-2.5-1.1-2.5-2.5S159.1,75,160.5,75 M160.5,73c-2.5,0-4.5,2-4.5,4.5
		s2,4.5,4.5,4.5s4.5-2,4.5-4.5S163,73,160.5,73L160.5,73z"/>
</g>
<g>
	<circle class="st0" cx="177.5" cy="77.5" r="3.5"/>
	<path d="M177.5,75c1.4,0,2.5,1.1,2.5,2.5s-1.1,2.5-2.5,2.5s-2.5-1.1-2.5-2.5S176.1,75,177.5,75 M177.5,73c-2.5,0-4.5,2-4.5,4.5
		s2,4.5,4.5,4.5s4.5-2,4.5-4.5S180,73,177.5,73L177.5,73z"/>
</g>
<g>
	<circle class="st0" cx="177.5" cy="93.5" r="3.5"/>
	<path d="M177.5,91c1.4,0,2.5,1.1,2.5,2.5s-1.1,2.5-2.5,2.5s-2.5-1.1-2.5-2.5S176.1,91,177.5,91 M177.5,89c-2.5,0-4.5,2-4.5,4.5
		s2,4.5,4.5,4.5s4.5-2,4.5-4.5S180,89,177.5,89L177.5,89z"/>
</g>
<g>
	<circle class="st0" cx="167.5" cy="85.5" r="3.5"/>
	<path d="M167.5,83c1.4,0,2.5,1.1,2.5,2.5s-1.1,2.5-2.5,2.5s-2.5-1.1-2.5-2.5S166.1,83,167.5,83 M167.5,81c-2.5,0-4.5,2-4.5,4.5
		s2,4.5,4.5,4.5s4.5-2,4.5-4.5S170,81,167.5,81L167.5,81z"/>
</g>
</svg>
