<?xml version="1.0" encoding="utf-8"?>
<!-- Generator: Adobe Illustrator 22.0.1, SVG Export Plug-In . SVG Version: 6.00 Build 0)  -->
<svg version="1.1" id="Layer_1" xmlns="http://www.w3.org/2000/svg" xmlns:xlink="http://www.w3.org/1999/xlink" x="0px" y="0px"
	 viewBox="0 0 1280 1024" style="enable-background:new 0 0 1280 1024;" xml:space="preserve">
<style type="text/css">
	.st0{fill:#FFFFFF;}
</style>
<g>
	<ellipse class="st0" cx="658.5" cy="637.5" rx="275.5" ry="237.5"/>
	<path d="M658.5,420C799.4,420,914,517.6,914,637.5S799.4,855,658.5,855S403,757.4,403,637.5S517.6,420,658.5,420 M658.5,380
		C495.3,380,363,495.3,363,637.5S495.3,895,658.5,895S954,779.7,954,637.5S821.7,380,658.5,380L658.5,380z"/>
</g>
<g>
	<ellipse class="st0" cx="659" cy="341" rx="78.3" ry="19"/>
	<path d="M659,302c-54.7,0-99,17.5-99,39s44.3,39,99,39s99-17.5,99-39S713.7,302,659,302L659,302z"/>
</g>
</svg>
