<svg xmlns="http://www.w3.org/2000/svg" viewBox="0 0 784.75 142.5"><defs><style>.cls-1{fill:#d32323;}.cls-2{fill:#fff;}</style></defs><title>yelp stars</title><g id="Layer_2" data-name="Layer 2"><g id="Layer_1-2" data-name="Layer 1"><rect class="cls-1" width="142.5" height="142.5" rx="16.25" ry="16.25"/><path class="cls-2" d="M72.2,23.78,86.4,52.56a1.05,1.05,0,0,0,.79.58L119,57.76a1.05,1.05,0,0,1,.58,1.8L96.56,82a1.05,1.05,0,0,0-.3.93l5.43,31.63a1.05,1.05,0,0,1-1.53,1.11L71.74,100.7a1.05,1.05,0,0,0-1,0L42.35,115.64a1.05,1.05,0,0,1-1.53-1.11l5.43-31.63a1.05,1.05,0,0,0-.3-.93L23,59.55a1.05,1.05,0,0,1,.58-1.8l31.76-4.62a1.05,1.05,0,0,0,.79-.58L70.3,23.78A1.05,1.05,0,0,1,72.2,23.78Z"/><rect class="cls-1" x="160.56" width="142.5" height="142.5" rx="16.25" ry="16.25"/><path class="cls-2" d="M232.76,23.78,247,52.56a1.05,1.05,0,0,0,.79.58l31.76,4.62a1.05,1.05,0,0,1,.58,1.8l-23,22.4a1.05,1.05,0,0,0-.3.93l5.43,31.63a1.05,1.05,0,0,1-1.53,1.11L232.3,100.7a1.05,1.05,0,0,0-1,0l-28.41,14.94a1.05,1.05,0,0,1-1.53-1.11l5.43-31.63a1.05,1.05,0,0,0-.3-.93l-23-22.4a1.05,1.05,0,0,1,.58-1.8l31.76-4.62a1.05,1.05,0,0,0,.79-.58l14.2-28.78A1.05,1.05,0,0,1,232.76,23.78Z"/><rect class="cls-1" x="321.12" width="142.5" height="142.5" rx="16.25" ry="16.25"/><path class="cls-2" d="M393.32,23.78l14.2,28.78a1.05,1.05,0,0,0,.79.58l31.76,4.62a1.05,1.05,0,0,1,.58,1.8l-23,22.4a1.05,1.05,0,0,0-.3.93l5.43,31.63a1.05,1.05,0,0,1-1.53,1.11L392.87,100.7a1.05,1.05,0,0,0-1,0l-28.41,14.94a1.05,1.05,0,0,1-1.53-1.11l5.43-31.63a1.05,1.05,0,0,0-.3-.93l-23-22.4a1.05,1.05,0,0,1,.58-1.8l31.76-4.62a1.05,1.05,0,0,0,.79-.58l14.2-28.78A1.05,1.05,0,0,1,393.32,23.78Z"/><rect class="cls-1" x="481.69" width="142.5" height="142.5" rx="16.25" ry="16.25"/><path class="cls-2" d="M553.88,23.78l14.2,28.78a1.05,1.05,0,0,0,.79.58l31.76,4.62a1.05,1.05,0,0,1,.58,1.8l-23,22.4a1.05,1.05,0,0,0-.3.93l5.43,31.63a1.05,1.05,0,0,1-1.53,1.11L553.43,100.7a1.05,1.05,0,0,0-1,0L524,115.64a1.05,1.05,0,0,1-1.53-1.11l5.43-31.63a1.05,1.05,0,0,0-.3-.93l-23-22.4a1.05,1.05,0,0,1,.58-1.8L537,53.14a1.05,1.05,0,0,0,.79-.58L552,23.78A1.05,1.05,0,0,1,553.88,23.78Z"/><rect class="cls-1" x="642.25" width="142.5" height="142.5" rx="16.25" ry="16.25"/><path class="cls-2" d="M714.45,23.78l14.2,28.78a1.05,1.05,0,0,0,.79.58l31.76,4.62a1.05,1.05,0,0,1,.58,1.8l-23,22.4a1.05,1.05,0,0,0-.3.93l5.43,31.63a1.05,1.05,0,0,1-1.53,1.11L714,100.7a1.05,1.05,0,0,0-1,0L684.6,115.64a1.05,1.05,0,0,1-1.53-1.11l5.43-31.63a1.05,1.05,0,0,0-.3-.93l-23-22.4a1.05,1.05,0,0,1,.58-1.8l31.76-4.62a1.05,1.05,0,0,0,.79-.58l14.2-28.78A1.05,1.05,0,0,1,714.45,23.78Z"/></g></g></svg>