<?xml version="1.0" encoding="utf-8"?>
<!-- Generator: Adobe Illustrator 22.0.1, SVG Export Plug-In . SVG Version: 6.00 Build 0)  -->
<svg version="1.1" id="Layer_1" xmlns="http://www.w3.org/2000/svg" xmlns:xlink="http://www.w3.org/1999/xlink" x="0px" y="0px"
	 viewBox="0 0 200 200" style="enable-background:new 0 0 200 200;" xml:space="preserve">
<style type="text/css">
	.st0{stroke:#000000;stroke-width:2;stroke-miterlimit:10;}
	.st1{fill:none;stroke:#FFFFFF;stroke-width:2;stroke-miterlimit:10;}
	.st2{fill:none;stroke:#000000;stroke-width:2;stroke-miterlimit:10;}
</style>
<ellipse class="st0" cx="96.5" cy="90" rx="31.5" ry="42"/>
<rect x="78.4" y="72" transform="matrix(0.6655 -0.7464 0.7464 0.6655 -35.1541 102.1275)" class="st1" width="36" height="36.5"/>
<path class="st2" d="M19,104h36c5.5,0,10-4.5,10-10v0c0-5.5-4.5-10-10-10H19c-5.5,0-10,4.5-10,10v0C9,99.5,13.5,104,19,104z"/>
<path class="st2" d="M138,104h36c5.5,0,10-4.5,10-10v0c0-5.5-4.5-10-10-10h-36c-5.5,0-10,4.5-10,10v0C128,99.5,132.5,104,138,104z"
	/>
</svg>
