<?xml version="1.0" encoding="utf-8"?>
<!-- Generator: Adobe Illustrator 22.0.1, SVG Export Plug-In . SVG Version: 6.00 Build 0)  -->
<svg version="1.1" id="Layer_1" xmlns="http://www.w3.org/2000/svg" xmlns:xlink="http://www.w3.org/1999/xlink" x="0px" y="0px"
	 viewBox="0 0 200 200" style="enable-background:new 0 0 200 200;" xml:space="preserve">
<style type="text/css">
	.st0{stroke:#000000;stroke-width:2;stroke-miterlimit:10;}
	.st1{fill:none;stroke:#FFFFFF;stroke-width:2;stroke-miterlimit:10;}
</style>
<ellipse class="st0" cx="85" cy="111" rx="20" ry="21"/>
<polygon class="st1" points="101.2,110.5 86,123.9 68.6,111.8 83.9,98.3 "/>
<ellipse class="st0" cx="124" cy="100" rx="20" ry="21"/>
<polygon class="st1" points="140.2,99.5 125,112.9 107.6,100.8 122.9,87.3 "/>
<ellipse class="st0" cx="143" cy="61" rx="20" ry="21"/>
<polygon class="st1" points="159.2,60.5 144,73.9 126.6,61.8 141.9,48.3 "/>
<ellipse class="st0" cx="111" cy="34" rx="20" ry="21"/>
<polygon class="st1" points="127.2,33.5 112,46.9 94.6,34.8 109.9,21.3 "/>
<ellipse class="st0" cx="47" cy="100" rx="20" ry="21"/>
<polygon class="st1" points="63.2,99.5 48,112.9 30.6,100.8 45.9,87.3 "/>
<ellipse class="st0" cx="38" cy="58" rx="20" ry="21"/>
<polygon class="st1" points="54.2,57.5 39,70.9 21.6,58.8 36.9,45.3 "/>
<ellipse class="st0" cx="69" cy="29" rx="20" ry="21"/>
<polygon class="st1" points="85.2,28.5 70,41.9 52.6,29.8 67.9,16.3 "/>
</svg>
