<?xml version="1.0" encoding="utf-8"?>
<!-- Generator: Adobe Illustrator 22.0.1, SVG Export Plug-In . SVG Version: 6.00 Build 0)  -->
<svg version="1.1" id="Layer_1" xmlns="http://www.w3.org/2000/svg" xmlns:xlink="http://www.w3.org/1999/xlink" x="0px" y="0px"
	 viewBox="0 0 50 50" style="enable-background:new 0 0 50 50;" xml:space="preserve">
<style type="text/css">
	.st0{fill:#FFFFFF;}
</style>
<g>
	<path class="st0" d="M3.5,25.5c-1.7,0-3-1.3-3-3s1.3-3,3-3h10c1.7,0,3,1.3,3,3s-1.3,3-3,3H3.5z"/>
	<path d="M13.5,20c1.4,0,2.5,1.1,2.5,2.5S14.9,25,13.5,25h-10C2.1,25,1,23.9,1,22.5S2.1,20,3.5,20H13.5 M13.5,19h-10
		C1.6,19,0,20.6,0,22.5S1.6,26,3.5,26h10c1.9,0,3.5-1.6,3.5-3.5S15.4,19,13.5,19L13.5,19z"/>
</g>
<g>
	<path class="st0" d="M36.5,25.5c-1.7,0-3-1.3-3-3s1.3-3,3-3h10c1.7,0,3,1.3,3,3s-1.3,3-3,3H36.5z"/>
	<path d="M46.5,20c1.4,0,2.5,1.1,2.5,2.5S47.9,25,46.5,25h-10c-1.4,0-2.5-1.1-2.5-2.5s1.1-2.5,2.5-2.5H46.5 M46.5,19h-10
		c-1.9,0-3.5,1.6-3.5,3.5s1.6,3.5,3.5,3.5h10c1.9,0,3.5-1.6,3.5-3.5S48.4,19,46.5,19L46.5,19z"/>
</g>
<g>
	<ellipse class="st0" cx="24.5" cy="22" rx="8" ry="8.5"/>
	<path d="M24.5,14c4.1,0,7.5,3.6,7.5,8s-3.4,8-7.5,8S17,26.4,17,22S20.4,14,24.5,14 M24.5,13c-4.7,0-8.5,4-8.5,9s3.8,9,8.5,9
		s8.5-4,8.5-9S29.2,13,24.5,13L24.5,13z"/>
</g>
<g>
	<rect x="19.7" y="17" transform="matrix(0.7071 -0.7071 0.7071 0.7071 -8.3353 23.7163)" width="9.5" height="9.8"/>
	<path d="M24.4,15.8l6.2,6.2l-6,6l-6.2-6.2L24.4,15.8 M24.4,14.4l-7.5,7.5l7.6,7.6L32,22L24.4,14.4L24.4,14.4z"/>
</g>
</svg>
