<?xml version="1.0" encoding="utf-8"?>
<!-- Generator: Adobe Illustrator 22.0.1, SVG Export Plug-In . SVG Version: 6.00 Build 0)  -->
<svg version="1.1" id="Layer_1" xmlns="http://www.w3.org/2000/svg" xmlns:xlink="http://www.w3.org/1999/xlink" x="0px" y="0px"
	 viewBox="0 0 200 200" style="enable-background:new 0 0 200 200;" xml:space="preserve">
<style type="text/css">
	.st0{fill:#FFFFFF;}
</style>
<g>
	<circle class="st0" cx="102.5" cy="87.5" r="33.5"/>
	<path d="M102.5,55c17.9,0,32.5,14.6,32.5,32.5S120.4,120,102.5,120S70,105.4,70,87.5S84.6,55,102.5,55 M102.5,53
		C83.4,53,68,68.4,68,87.5S83.4,122,102.5,122S137,106.6,137,87.5S121.6,53,102.5,53L102.5,53z"/>
</g>
<g>
	<path class="st0" d="M103,119.2c-0.3,0-0.5-0.1-0.7-0.3L73.1,89.7c-0.2-0.2-0.3-0.4-0.3-0.7s0.1-0.5,0.3-0.7l29.3-29.3
		c0.2-0.2,0.4-0.3,0.7-0.3s0.5,0.1,0.7,0.3l29.3,29.3c0.4,0.4,0.4,1,0,1.3l-29.3,29.3C103.5,119.1,103.3,119.2,103,119.2z"/>
	<path d="M103,59.8L132.2,89L103,118.2L73.8,89L103,59.8 M103,57.8c-0.5,0-1,0.2-1.4,0.6L72.4,87.6c-0.8,0.8-0.8,2,0,2.7l29.3,29.3
		c0.4,0.4,0.9,0.6,1.4,0.6s1-0.2,1.4-0.6l29.3-29.3c0.8-0.8,0.8-2,0-2.7l-29.3-29.3C104,58,103.5,57.8,103,57.8L103,57.8z"/>
</g>
<g>
	<ellipse class="st0" cx="43" cy="89.5" rx="25" ry="21.5"/>
	<path d="M43,69c13.2,0,24,9.2,24,20.5S56.2,110,43,110s-24-9.2-24-20.5S29.8,69,43,69 M43,67c-14.4,0-26,10.1-26,22.5
		S28.6,112,43,112s26-10.1,26-22.5S57.4,67,43,67L43,67z"/>
</g>
<g>
	<path class="st0" d="M43.4,109.8c-0.1,0-0.3,0-0.4-0.1l-22-19.1c0,0-0.1-0.1-0.1-0.1c0-0.1,0.1-0.1,0.1-0.1l22-19.1
		c0.1-0.1,0.2-0.1,0.4-0.1c0.1,0,0.3,0,0.4,0.1l22,19.1c0,0,0.1,0.1,0.1,0.1c0,0.1-0.1,0.1-0.1,0.1l-22,19.1
		C43.7,109.8,43.5,109.8,43.4,109.8z"/>
	<path d="M43.4,72.3l21.1,18.2l-21.1,18.2L22.3,90.5L43.4,72.3 M43.4,70.1c-0.4,0-0.7,0.1-1,0.4l-22,19.1c-0.6,0.5-0.6,1.3,0,1.8
		l22,19.1c0.3,0.2,0.7,0.4,1,0.4c0.4,0,0.7-0.1,1-0.4l22-19.1c0.6-0.5,0.6-1.3,0-1.8l-22-19.1C44.1,70.3,43.8,70.1,43.4,70.1
		L43.4,70.1z"/>
</g>
<g>
	<ellipse class="st0" cx="163" cy="87.5" rx="25" ry="21.5"/>
	<path d="M163,67c13.2,0,24,9.2,24,20.5S176.2,108,163,108s-24-9.2-24-20.5S149.8,67,163,67 M163,65c-14.4,0-26,10.1-26,22.5
		s11.6,22.5,26,22.5s26-10.1,26-22.5S177.4,65,163,65L163,65z"/>
</g>
<g>
	<path class="st0" d="M161.4,109.8c-0.1,0-0.3,0-0.4-0.1l-22-19.1c0,0-0.1-0.1-0.1-0.1c0-0.1,0.1-0.1,0.1-0.1l22-19.1
		c0.1-0.1,0.2-0.1,0.4-0.1s0.3,0,0.4,0.1l22.1,19.1c0,0,0.1,0.1,0.1,0.1c0,0.1-0.1,0.1-0.1,0.1l-22,19.1
		C161.7,109.8,161.5,109.8,161.4,109.8z"/>
	<path d="M161.4,72.3l21.1,18.2l-21.1,18.2l-21.1-18.2L161.4,72.3 M161.4,70.1c-0.4,0-0.7,0.1-1,0.4l-22,19.1
		c-0.6,0.5-0.6,1.3,0,1.8l22,19.1c0.3,0.2,0.7,0.4,1,0.4c0.4,0,0.7-0.1,1-0.4l22-19.1c0.6-0.5,0.6-1.3,0-1.8l-22-19.1
		C162.1,70.3,161.8,70.1,161.4,70.1L161.4,70.1z"/>
</g>
</svg>
